<svg width="124" height="63" viewBox="0 0 124 63" fill="none" xmlns="http://www.w3.org/2000/svg">
<path d="M1.46411 33.0005V15.3005H7.18811C8.37211 15.3005 9.44811 15.5165 10.4161 15.9485C11.3921 16.3725 12.2281 16.9765 12.9241 17.7605C13.6281 18.5365 14.1681 19.4645 14.5441 20.5445C14.9201 21.6245 15.1081 22.8165 15.1081 24.1205C15.1081 25.4245 14.9201 26.6205 14.5441 27.7085C14.1681 28.7965 13.6281 29.7365 12.9241 30.5285C12.2281 31.3125 11.3921 31.9205 10.4161 32.3525C9.44811 32.7845 8.37211 33.0005 7.18811 33.0005H1.46411ZM5.20811 31.8965L3.52811 30.1205H6.70811C7.57211 30.1205 8.35211 29.8805 9.04811 29.4005C9.75211 28.9125 10.3081 28.2205 10.7161 27.3245C11.1241 26.4205 11.3281 25.3525 11.3281 24.1205C11.3281 22.8805 11.1241 21.8205 10.7161 20.9405C10.3081 20.0525 9.75211 19.3725 9.04811 18.9005C8.35211 18.4205 7.57211 18.1805 6.70811 18.1805H3.52811L5.20811 16.4045V31.8965ZM21.3457 33.2645C20.4177 33.2645 19.5897 33.1165 18.8617 32.8205C18.1417 32.5245 17.5777 32.0965 17.1697 31.5365C16.7617 30.9765 16.5577 30.2965 16.5577 29.4965C16.5577 28.5925 16.8057 27.8565 17.3017 27.2885C17.7977 26.7205 18.4537 26.2885 19.2697 25.9925C20.0937 25.6885 20.9857 25.4885 21.9457 25.3925C23.3457 25.2565 24.3097 25.1325 24.8377 25.0205C25.3737 24.9085 25.6417 24.7125 25.6417 24.4325C25.6417 24.4245 25.6417 24.4165 25.6417 24.4085C25.6417 23.9365 25.4137 23.5645 24.9577 23.2925C24.5097 23.0205 23.8817 22.8845 23.0737 22.8845C22.2177 22.8845 21.5617 23.0405 21.1057 23.3525C20.6577 23.6565 20.4337 24.1245 20.4337 24.7565H16.7737C16.7737 23.7325 17.0497 22.8685 17.6017 22.1645C18.1617 21.4605 18.9177 20.9285 19.8697 20.5685C20.8217 20.2005 21.8977 20.0165 23.0977 20.0165C24.2177 20.0165 25.2537 20.1885 26.2057 20.5325C27.1577 20.8685 27.9217 21.3765 28.4977 22.0565C29.0817 22.7365 29.3737 23.6005 29.3737 24.6485C29.3737 24.8165 29.3737 24.9845 29.3737 25.1525C29.3737 25.3125 29.3737 25.4765 29.3737 25.6445V30.1565C29.3737 30.4845 29.3817 30.8005 29.3977 31.1045C29.4217 31.4005 29.4697 31.6725 29.5417 31.9205C29.6217 32.2005 29.7217 32.4325 29.8417 32.6165C29.9617 32.8005 30.0617 32.9285 30.1417 33.0005H26.4817C26.4257 32.9445 26.3377 32.8285 26.2177 32.6525C26.1057 32.4765 26.0097 32.2725 25.9297 32.0405C25.8337 31.7605 25.7617 31.4805 25.7137 31.2005C25.6737 30.9125 25.6537 30.5765 25.6537 30.1925L26.4217 30.7205C26.1977 31.2485 25.8337 31.7045 25.3297 32.0885C24.8337 32.4645 24.2417 32.7565 23.5537 32.9645C22.8737 33.1645 22.1377 33.2645 21.3457 33.2645ZM22.3417 30.4805C22.9257 30.4805 23.4697 30.3765 23.9737 30.1685C24.4857 29.9525 24.9017 29.6165 25.2217 29.1605C25.5417 28.7045 25.7017 28.1085 25.7017 27.3725V26.0885L26.6257 26.9885C26.0977 27.1805 25.4857 27.3405 24.7897 27.4685C24.1017 27.5885 23.4137 27.6845 22.7257 27.7565C21.9097 27.8365 21.2977 27.9765 20.8897 28.1765C20.4897 28.3685 20.2897 28.6965 20.2897 29.1605C20.2897 29.6005 20.4617 29.9325 20.8057 30.1565C21.1497 30.3725 21.6617 30.4805 22.3417 30.4805ZM31.568 33.0005V20.2565H35.3V24.6485L34.532 24.1685C34.62 23.5685 34.78 23.0165 35.012 22.5125C35.244 22.0085 35.544 21.5725 35.912 21.2045C36.28 20.8285 36.716 20.5365 37.22 20.3285C37.732 20.1205 38.316 20.0165 38.972 20.0165C39.484 20.0165 39.884 20.0565 40.172 20.1365C40.468 20.2085 40.652 20.2645 40.724 20.3045L40.112 23.6405C40.04 23.6005 39.88 23.5365 39.632 23.4485C39.384 23.3605 39.064 23.3165 38.672 23.3165C38.032 23.3165 37.496 23.4245 37.064 23.6405C36.632 23.8565 36.284 24.1445 36.02 24.5045C35.764 24.8565 35.58 25.2485 35.468 25.6805C35.356 26.1125 35.3 26.5485 35.3 26.9885V33.0005H31.568ZM52.351 33.0005L49.687 20.2565H52.399L55.075 31.9445L54.463 31.9685L56.131 20.2565H59.971L57.427 33.0005H52.351ZM43.495 33.0005L40.951 20.2565H44.791L46.459 31.9685L45.859 31.9445L48.511 20.2565H51.223L48.583 33.0005H43.495ZM61.0711 33.0005V20.2565H64.7551V33.0005H61.0711ZM62.9071 18.1805C62.3311 18.1805 61.8271 18.0285 61.3951 17.7245C60.9711 17.4205 60.7591 16.9925 60.7591 16.4405C60.7591 15.8805 60.9711 15.4485 61.3951 15.1445C61.8271 14.8405 62.3311 14.6885 62.9071 14.6885C63.4911 14.6885 63.9951 14.8405 64.4191 15.1445C64.8511 15.4485 65.0671 15.8805 65.0671 16.4405C65.0671 17.0005 64.8511 17.4325 64.4191 17.7365C63.9951 18.0325 63.4911 18.1805 62.9071 18.1805ZM75.9444 33.0005V27.5885C75.9444 27.2845 75.9444 27.0085 75.9444 26.7605C75.9444 26.5125 75.9444 26.2885 75.9444 26.0885C75.9444 25.5605 75.8764 25.0805 75.7404 24.6485C75.6044 24.2085 75.3604 23.8565 75.0084 23.5925C74.6564 23.3285 74.1484 23.1965 73.4844 23.1965C72.9084 23.1965 72.4084 23.3285 71.9844 23.5925C71.5684 23.8565 71.2484 24.2245 71.0244 24.6965C70.8004 25.1685 70.6884 25.7125 70.6884 26.3285L69.6564 25.5845C69.6564 24.4805 69.8964 23.5125 70.3764 22.6805C70.8564 21.8485 71.5044 21.1965 72.3204 20.7245C73.1444 20.2525 74.0564 20.0165 75.0564 20.0165C76.1044 20.0165 76.9644 20.2285 77.6364 20.6525C78.3164 21.0685 78.8204 21.6525 79.1484 22.4045C79.4844 23.1485 79.6524 24.0205 79.6524 25.0205C79.6524 25.4285 79.6524 25.8845 79.6524 26.3885C79.6524 26.8925 79.6524 27.4085 79.6524 27.9365V33.0005H75.9444ZM66.9684 33.0005V20.2565H70.6884V33.0005H66.9684ZM81.7651 33.0005V20.2565H85.4491V33.0005H81.7651ZM83.6011 18.1805C83.0251 18.1805 82.5211 18.0285 82.0891 17.7245C81.6651 17.4205 81.4531 16.9925 81.4531 16.4405C81.4531 15.8805 81.6651 15.4485 82.0891 15.1445C82.5211 14.8405 83.0251 14.6885 83.6011 14.6885C84.1851 14.6885 84.6891 14.8405 85.1131 15.1445C85.5451 15.4485 85.7611 15.8805 85.7611 16.4405C85.7611 17.0005 85.5451 17.4325 85.1131 17.7365C84.6891 18.0325 84.1851 18.1805 83.6011 18.1805ZM91.9824 33.2645C91.0544 33.2645 90.2264 33.1165 89.4984 32.8205C88.7784 32.5245 88.2144 32.0965 87.8064 31.5365C87.3984 30.9765 87.1944 30.2965 87.1944 29.4965C87.1944 28.5925 87.4424 27.8565 87.9384 27.2885C88.4344 26.7205 89.0904 26.2885 89.9064 25.9925C90.7304 25.6885 91.6224 25.4885 92.5824 25.3925C93.9824 25.2565 94.9464 25.1325 95.4744 25.0205C96.0104 24.9085 96.2784 24.7125 96.2784 24.4325C96.2784 24.4245 96.2784 24.4165 96.2784 24.4085C96.2784 23.9365 96.0504 23.5645 95.5944 23.2925C95.1464 23.0205 94.5184 22.8845 93.7104 22.8845C92.8544 22.8845 92.1984 23.0405 91.7424 23.3525C91.2944 23.6565 91.0704 24.1245 91.0704 24.7565H87.4104C87.4104 23.7325 87.6864 22.8685 88.2384 22.1645C88.7984 21.4605 89.5544 20.9285 90.5064 20.5685C91.4584 20.2005 92.5344 20.0165 93.7344 20.0165C94.8544 20.0165 95.8904 20.1885 96.8424 20.5325C97.7944 20.8685 98.5584 21.3765 99.1344 22.0565C99.7184 22.7365 100.01 23.6005 100.01 24.6485C100.01 24.8165 100.01 24.9845 100.01 25.1525C100.01 25.3125 100.01 25.4765 100.01 25.6445V30.1565C100.01 30.4845 100.018 30.8005 100.034 31.1045C100.058 31.4005 100.106 31.6725 100.178 31.9205C100.258 32.2005 100.358 32.4325 100.478 32.6165C100.598 32.8005 100.698 32.9285 100.778 33.0005H97.1184C97.0624 32.9445 96.9744 32.8285 96.8544 32.6525C96.7424 32.4765 96.6464 32.2725 96.5664 32.0405C96.4704 31.7605 96.3984 31.4805 96.3504 31.2005C96.3104 30.9125 96.2904 30.5765 96.2904 30.1925L97.0584 30.7205C96.8344 31.2485 96.4704 31.7045 95.9664 32.0885C95.4704 32.4645 94.8784 32.7565 94.1904 32.9645C93.5104 33.1645 92.7744 33.2645 91.9824 33.2645ZM92.9784 30.4805C93.5624 30.4805 94.1064 30.3765 94.6104 30.1685C95.1224 29.9525 95.5384 29.6165 95.8584 29.1605C96.1784 28.7045 96.3384 28.1085 96.3384 27.3725V26.0885L97.2624 26.9885C96.7344 27.1805 96.1224 27.3405 95.4264 27.4685C94.7384 27.5885 94.0504 27.6845 93.3624 27.7565C92.5464 27.8365 91.9344 27.9765 91.5264 28.1765C91.1264 28.3685 90.9264 28.6965 90.9264 29.1605C90.9264 29.6005 91.0984 29.9325 91.4424 30.1565C91.7864 30.3725 92.2984 30.4805 92.9784 30.4805ZM111.181 33.0005V27.5885C111.181 27.2845 111.181 27.0085 111.181 26.7605C111.181 26.5125 111.181 26.2885 111.181 26.0885C111.181 25.5605 111.113 25.0805 110.977 24.6485C110.841 24.2085 110.597 23.8565 110.245 23.5925C109.893 23.3285 109.385 23.1965 108.721 23.1965C108.145 23.1965 107.645 23.3285 107.221 23.5925C106.805 23.8565 106.485 24.2245 106.261 24.6965C106.037 25.1685 105.925 25.7125 105.925 26.3285L104.893 25.5845C104.893 24.4805 105.133 23.5125 105.613 22.6805C106.093 21.8485 106.741 21.1965 107.557 20.7245C108.381 20.2525 109.293 20.0165 110.293 20.0165C111.341 20.0165 112.201 20.2285 112.873 20.6525C113.553 21.0685 114.057 21.6525 114.385 22.4045C114.721 23.1485 114.889 24.0205 114.889 25.0205C114.889 25.4285 114.889 25.8845 114.889 26.3885C114.889 26.8925 114.889 27.4085 114.889 27.9365V33.0005H111.181ZM102.205 33.0005V20.2565H105.925V33.0005H102.205Z" fill="#00234B"/>
<path d="M9.29688 42.4422L6.20088 52.0002H3.60888L0.431885 42.4422H2.44788L5.05788 51.1812H4.75188L7.28088 42.4422H9.29688ZM16.2583 47.9052V46.3842H23.2963L23.0263 46.8342C23.0263 46.7982 23.0263 46.7622 23.0263 46.7262C23.0263 46.6842 23.0263 46.6482 23.0263 46.6182C23.0263 46.1322 22.9213 45.6852 22.7113 45.2772C22.5013 44.8632 22.1863 44.5332 21.7663 44.2872C21.3523 44.0352 20.8333 43.9092 20.2093 43.9092C19.5853 43.9092 19.0363 44.0442 18.5623 44.3142C18.0943 44.5782 17.7283 44.9562 17.4643 45.4482C17.2063 45.9342 17.0773 46.5192 17.0773 47.2032C17.0773 47.8992 17.2033 48.4992 17.4553 49.0032C17.7073 49.5012 18.0703 49.8852 18.5443 50.1552C19.0183 50.4252 19.5853 50.5602 20.2453 50.5602C20.7073 50.5602 21.1063 50.5152 21.4423 50.4252C21.7843 50.3292 22.0633 50.2032 22.2793 50.0472C22.5013 49.8912 22.6693 49.7232 22.7833 49.5432C22.8973 49.3572 22.9633 49.1742 22.9813 48.9942H24.9253C24.8893 49.3842 24.7603 49.7712 24.5383 50.1552C24.3223 50.5332 24.0133 50.8782 23.6113 51.1902C23.2153 51.4962 22.7293 51.7422 22.1533 51.9282C21.5833 52.1082 20.9263 52.1982 20.1823 52.1982C19.1863 52.1982 18.3133 51.9882 17.5633 51.5682C16.8133 51.1482 16.2283 50.5662 15.8083 49.8222C15.3883 49.0722 15.1783 48.2142 15.1783 47.2482C15.1783 46.2642 15.3913 45.4002 15.8173 44.6562C16.2433 43.9122 16.8343 43.3332 17.5903 42.9192C18.3463 42.4992 19.2133 42.2892 20.1913 42.2892C21.1873 42.2892 22.0483 42.4992 22.7743 42.9192C23.5063 43.3392 24.0703 43.9182 24.4663 44.6562C24.8623 45.3942 25.0603 46.2432 25.0603 47.2032C25.0603 47.3172 25.0573 47.4492 25.0513 47.5992C25.0453 47.7492 25.0363 47.8512 25.0243 47.9052H16.2583ZM39.1351 52.0002V47.5902C39.1351 47.3322 39.1351 47.1132 39.1351 46.9332C39.1351 46.7532 39.1351 46.5852 39.1351 46.4292C39.1351 45.9612 39.0631 45.5502 38.9191 45.1962C38.7751 44.8362 38.5381 44.5572 38.2081 44.3592C37.8781 44.1552 37.4371 44.0532 36.8851 44.0532C36.3991 44.0532 35.9581 44.1732 35.5621 44.4132C35.1721 44.6532 34.8601 44.9802 34.6261 45.3942C34.3981 45.8022 34.2841 46.2672 34.2841 46.7892L33.4471 46.3752C33.4471 45.6012 33.6301 44.9082 33.9961 44.2962C34.3621 43.6782 34.8511 43.1892 35.4631 42.8292C36.0811 42.4692 36.7561 42.2892 37.4881 42.2892C38.2441 42.2892 38.8891 42.4362 39.4231 42.7302C39.9631 43.0182 40.3741 43.4322 40.6561 43.9722C40.9441 44.5062 41.0881 45.1452 41.0881 45.8892C41.0881 46.1652 41.0881 46.4712 41.0881 46.8072C41.0881 47.1432 41.0881 47.4672 41.0881 47.7792V52.0002H39.1351ZM32.3311 52.0002V42.4422H34.2841V52.0002H32.3311ZM52.4623 52.1622C52.1443 52.1622 51.8263 52.1292 51.5083 52.0632C51.1963 51.9972 50.9083 51.8772 50.6443 51.7032C50.3863 51.5232 50.1793 51.2682 50.0233 50.9382C49.8673 50.6082 49.7893 50.1762 49.7893 49.6422C49.7893 49.5162 49.7893 49.3842 49.7893 49.2462C49.7893 49.1082 49.7893 48.9672 49.7893 48.8232V44.0622H47.4943V42.4422H48.7003C48.9583 42.4422 49.1593 42.4332 49.3033 42.4152C49.4533 42.3912 49.5613 42.3402 49.6273 42.2622C49.6993 42.1782 49.7443 42.0462 49.7623 41.8662C49.7803 41.6862 49.7893 41.4402 49.7893 41.1282V39.2832H51.7423V42.4422H54.6673V44.0622H51.7423V48.3012C51.7423 48.4212 51.7423 48.5412 51.7423 48.6612C51.7423 48.7812 51.7423 48.8922 51.7423 48.9942C51.7423 49.4742 51.7993 49.8522 51.9133 50.1282C52.0333 50.4042 52.3033 50.5422 52.7233 50.5422C52.9033 50.5422 53.0743 50.5272 53.2363 50.4972C53.3983 50.4672 53.5213 50.4342 53.6053 50.3982V51.9912C53.4973 52.0332 53.3443 52.0722 53.1463 52.1082C52.9483 52.1442 52.7203 52.1622 52.4623 52.1622ZM65.1096 52.1712C64.4316 52.1712 63.8676 52.0572 63.4176 51.8292C62.9676 51.5952 62.6106 51.2922 62.3466 50.9202C62.0826 50.5422 61.8966 50.1312 61.7886 49.6872C61.6806 49.2372 61.6266 48.7992 61.6266 48.3732C61.6266 48.1512 61.6266 47.9202 61.6266 47.6802C61.6266 47.4342 61.6266 47.1882 61.6266 46.9422V42.4422H63.5886V46.6632C63.5886 46.8792 63.5886 47.0922 63.5886 47.3022C63.5886 47.5062 63.5886 47.6982 63.5886 47.8782C63.5886 48.3402 63.6486 48.7662 63.7686 49.1562C63.8886 49.5402 64.0986 49.8522 64.3986 50.0922C64.7046 50.3262 65.1306 50.4432 65.6766 50.4432C66.1866 50.4432 66.6306 50.2932 67.0086 49.9932C67.3866 49.6872 67.6806 49.3032 67.8906 48.8412C68.1006 48.3732 68.2056 47.9052 68.2056 47.4372L69.0606 47.8962C69.0606 48.4482 68.9676 48.9792 68.7816 49.4892C68.6016 49.9992 68.3406 50.4582 67.9986 50.8662C67.6566 51.2682 67.2396 51.5862 66.7476 51.8202C66.2616 52.0542 65.7156 52.1712 65.1096 52.1712ZM68.2056 52.0002V42.4422H70.1586V52.0002H68.2056ZM77.7245 52.0002V42.4422H79.6775V45.4932L79.1555 45.2592C79.1975 44.8692 79.2965 44.4972 79.4525 44.1432C79.6085 43.7892 79.8155 43.4742 80.0735 43.1982C80.3375 42.9162 80.6615 42.6942 81.0455 42.5322C81.4295 42.3702 81.8735 42.2892 82.3775 42.2892C82.7615 42.2892 83.0705 42.3192 83.3045 42.3792C83.5445 42.4392 83.6915 42.4872 83.7455 42.5232L83.3315 44.3592C83.2715 44.3172 83.1485 44.2632 82.9625 44.1972C82.7825 44.1312 82.5305 44.0982 82.2065 44.0982C81.7145 44.0982 81.3065 44.1852 80.9825 44.3592C80.6585 44.5332 80.4005 44.7642 80.2085 45.0522C80.0165 45.3402 79.8785 45.6552 79.7945 45.9972C79.7165 46.3332 79.6775 46.6722 79.6775 47.0142V52.0002H77.7245ZM90.9294 47.9052V46.3842H97.9674L97.6974 46.8342C97.6974 46.7982 97.6974 46.7622 97.6974 46.7262C97.6974 46.6842 97.6974 46.6482 97.6974 46.6182C97.6974 46.1322 97.5924 45.6852 97.3824 45.2772C97.1724 44.8632 96.8574 44.5332 96.4374 44.2872C96.0234 44.0352 95.5044 43.9092 94.8804 43.9092C94.2564 43.9092 93.7074 44.0442 93.2334 44.3142C92.7654 44.5782 92.3994 44.9562 92.1354 45.4482C91.8774 45.9342 91.7484 46.5192 91.7484 47.2032C91.7484 47.8992 91.8744 48.4992 92.1264 49.0032C92.3784 49.5012 92.7414 49.8852 93.2154 50.1552C93.6894 50.4252 94.2564 50.5602 94.9164 50.5602C95.3784 50.5602 95.7774 50.5152 96.1134 50.4252C96.4554 50.3292 96.7344 50.2032 96.9504 50.0472C97.1724 49.8912 97.3404 49.7232 97.4544 49.5432C97.5684 49.3572 97.6344 49.1742 97.6524 48.9942H99.5964C99.5604 49.3842 99.4314 49.7712 99.2094 50.1552C98.9934 50.5332 98.6844 50.8782 98.2824 51.1902C97.8864 51.4962 97.4004 51.7422 96.8244 51.9282C96.2544 52.1082 95.5974 52.1982 94.8534 52.1982C93.8574 52.1982 92.9844 51.9882 92.2344 51.5682C91.4844 51.1482 90.8994 50.5662 90.4794 49.8222C90.0594 49.0722 89.8494 48.2142 89.8494 47.2482C89.8494 46.2642 90.0624 45.4002 90.4884 44.6562C90.9144 43.9122 91.5054 43.3332 92.2614 42.9192C93.0174 42.4992 93.8844 42.2892 94.8624 42.2892C95.8584 42.2892 96.7194 42.4992 97.4454 42.9192C98.1774 43.3392 98.7414 43.9182 99.1374 44.6562C99.5334 45.3942 99.7314 46.2432 99.7314 47.2032C99.7314 47.3172 99.7284 47.4492 99.7224 47.5992C99.7164 47.7492 99.7074 47.8512 99.6954 47.9052H90.9294ZM110.764 52.1892C110.194 52.1892 109.657 52.1262 109.153 52.0002C108.649 51.8742 108.205 51.6912 107.821 51.4512C107.443 51.2052 107.146 50.9022 106.93 50.5422C106.72 50.1822 106.615 49.7652 106.615 49.2912C106.615 49.2492 106.615 49.2072 106.615 49.1652C106.615 49.1172 106.615 49.0782 106.615 49.0482H108.559C108.559 49.0782 108.559 49.1052 108.559 49.1292C108.559 49.1532 108.559 49.1862 108.559 49.2282C108.559 49.6662 108.76 49.9992 109.162 50.2272C109.57 50.4492 110.122 50.5602 110.818 50.5602C111.226 50.5602 111.598 50.5182 111.934 50.4342C112.276 50.3502 112.546 50.2212 112.744 50.0472C112.948 49.8732 113.05 49.6512 113.05 49.3812C113.05 48.9432 112.834 48.6312 112.402 48.4452C111.976 48.2592 111.328 48.0942 110.458 47.9502C109.984 47.8662 109.525 47.7582 109.081 47.6262C108.643 47.4942 108.247 47.3202 107.893 47.1042C107.545 46.8822 107.266 46.6092 107.056 46.2852C106.852 45.9552 106.75 45.5592 106.75 45.0972C106.75 44.4972 106.93 43.9872 107.29 43.5672C107.65 43.1472 108.136 42.8292 108.748 42.6132C109.36 42.3972 110.035 42.2892 110.773 42.2892C111.487 42.2892 112.147 42.4062 112.753 42.6402C113.365 42.8682 113.857 43.2012 114.229 43.6392C114.601 44.0712 114.787 44.6022 114.787 45.2322C114.787 45.2562 114.787 45.2832 114.787 45.3132C114.787 45.3432 114.787 45.3702 114.787 45.3942H112.852C112.852 45.3702 112.852 45.3492 112.852 45.3312C112.852 45.3132 112.852 45.2922 112.852 45.2682C112.852 44.9562 112.753 44.7012 112.555 44.5032C112.357 44.3052 112.099 44.1582 111.781 44.0622C111.469 43.9602 111.136 43.9092 110.782 43.9092C110.458 43.9092 110.131 43.9452 109.801 44.0172C109.477 44.0832 109.207 44.2002 108.991 44.3682C108.775 44.5302 108.667 44.7522 108.667 45.0342C108.667 45.3222 108.772 45.5532 108.982 45.7272C109.192 45.8952 109.489 46.0362 109.873 46.1502C110.257 46.2582 110.704 46.3572 111.214 46.4472C111.682 46.5312 112.138 46.6392 112.582 46.7712C113.026 46.8972 113.425 47.0652 113.779 47.2752C114.139 47.4852 114.424 47.7552 114.634 48.0852C114.85 48.4152 114.958 48.8202 114.958 49.3002C114.958 49.7982 114.844 50.2272 114.616 50.5872C114.388 50.9472 114.076 51.2472 113.68 51.4872C113.29 51.7212 112.843 51.8952 112.339 52.0092C111.841 52.1292 111.316 52.1892 110.764 52.1892Z" fill="#00234B"/>
</svg>
